<svg width="29" height="29" viewBox="0 0 29 29" fill="none" xmlns="http://www.w3.org/2000/svg">
<path d="M7.25 2.41667L3.625 7.25V24.1667C3.625 24.8076 3.87961 25.4223 4.33283 25.8755C4.78604 26.3287 5.40073 26.5833 6.04167 26.5833H22.9583C23.5993 26.5833 24.214 26.3287 24.6672 25.8755C25.1204 25.4223 25.375 24.8076 25.375 24.1667V7.25L21.75 2.41667H7.25Z" stroke="black" stroke-width="2" stroke-linecap="round" stroke-linejoin="round"/>
<path d="M3.625 7.25H25.375" stroke="black" stroke-width="2" stroke-linecap="round" stroke-linejoin="round"/>
<path d="M19.3333 12.0833C19.3333 13.3652 18.8241 14.5946 17.9177 15.501C17.0113 16.4074 15.7819 16.9167 14.5 16.9167C13.2181 16.9167 11.9887 16.4074 11.0823 15.501C10.1759 14.5946 9.66666 13.3652 9.66666 12.0833" stroke="black" stroke-width="2" stroke-linecap="round" stroke-linejoin="round"/>
</svg>
